<svg xmlns="http://www.w3.org/2000/svg"><defs><font horiz-adv-x="0"><font-face ascent="1638" descent="-410" units-per-em="2048"/><missing-glyph horiz-adv-x="659"/><glyph d="M82 178l391 893h86zM168 98l457 854 512-954h-512v100h-457zM692 1071h1694l278-876-258 489h-135l-104-201-109 201h-129l-284-539q-33 68-66 113t-66 84q2 0 14.5 11.5t27 33 26.5 53 12 74.5q0 39-11 75t-37.5 63.5-69.5 44-107 16.5h-219v-500zM1264-2v614h104q66 0 91.5-29.5t25.5-68.5q0-43-17.5-75.5t-39-54.5-40-32-20.5-10q4-4 35-36t66.5-79 65.5-107.5 34-121.5h-305zM1694-2l299 563 106-203-190-360h-215zM2040-2l299 563 299-563h-598z" horiz-adv-x="2756" unicode="&#x76;&#x65;&#x6e;&#x64;&#x65;&#x72;&#x5f;&#x63;&#x68;&#x6b;"/><glyph horiz-adv-x="659" unicode="&#xd;"/><glyph horiz-adv-x="659" unicode="&#x20;"/><glyph horiz-adv-x="659" unicode="&#x09;"/><glyph horiz-adv-x="659" unicode="&#xa0;"/><glyph d="M92 0v115h115v-115h-115zM92 215v860h115v-860h-115z" horiz-adv-x="315" unicode="&#x21;"/><glyph d="M111 737v338h114v-338h-114zM326 737v338h114v-338h-114z" horiz-adv-x="552" unicode="&#x22;"/><glyph d="M51 301l27 100h153l58 215h-154l25 101h157l78 287h119l-78-287h287l78 287h119l-78-287h176l-27-101h-176l-57-215h176l-29-100h-174l-80-301h-119l80 301h-286l-80-301h-119l80 301h-156zM352 401h287l57 215h-286z" horiz-adv-x="1062" unicode="&#x23;"/><glyph d="M49 55v138q31-35 99.5-71t191.5-36q113 0 175.5 54.5t62.5 152.5q0 70-39 108.5t-98.5 64.5-127 44-127 49-98.5 81-39 136q0 96 67.5 154.5t162.5 79.5v166h116v-160q104-4 157.5-27.5t76.5-46.5v-149q-8 18-25.5 40.5t-48.5 41-76 31-108 12.5q-37 0-72-10.5t-62.5-29-44-45-16.5-57.5q0-57 38-90t95.5-56.5 125-44 124.5-55 95-90 38-147.5q0-55-12-107.5t-46-94.5-91.5-69.5-147.5-33.5v-160h-116v160q-109 6-161 27.5t-69 39.5z" horiz-adv-x="733" unicode="&#x24;"/><glyph d="M55 854q0 147 56.5 222t144.5 75q86 0 138-70.5t52-214.5q0-141-57-214.5t-143-73.5q-82 0-136.5 67.5t-54.5 208.5zM174 858q0-59 6-94t16.5-54.5 25-25.5 30.5-6 30.5 7 25.5 26.5 17.5 55.5 6.5 93q0 115-23.5 153t-56.5 38q-35 0-56.5-38t-21.5-155zM195 0l688 1233h129l-688-1233h-129zM686 248q0 147 56.5 222t144.5 75q86 0 138-71t52-214q0-141-57-215t-143-74q-82 0-136.5 67.5t-54.5 209.5zM805 252q0-59 6-94t16.5-54.5 24.5-25.5 31-6q16 0 30.5 7t25.5 26.5 17.5 55.5 6.5 93q0 115-24 152.5t-56 37.5q-35 0-56.5-37.5t-21.5-154.5z" horiz-adv-x="1163" unicode="&#x25;"/><glyph d="M78 260q0 111 58.5 188.5t174.5 131.5q-45 29-80.5 83t-35.5 132q0 111 73.5 167t192.5 56q49 0 95-14.5t81-40 55.5-63.5 20.5-85q0-94-52.5-149.5t-150.5-96.5q106-57 170.5-129.5t110.5-142.5q66 96 97.5 201.5t31.5 183.5v35h108q-2-59-14.5-125t-34-133.5-52-131-71.5-118.5q39-49 87-79t126-30v-100q-104 0-172 34t-115 89q-137-137-364-137-160 0-250 63.5t-90 210.5zM193 260q0-51 17-85t48-53.5 72-27.5 88-8q182 0 297 117-29 43-59.5 87t-67.5 85-83 75.5-106 57.5q-47-20-86-41t-65.5-48.5-40.5-65.5-14-93zM309 795q0-55 26.5-100.5t82.5-76.5q180 68 180 197 0 25-14.5 43.5t-36 30.5-45 18-41.5 6q-78 0-115-34.5t-37-83.5z" horiz-adv-x="1122" unicode="&#x26;"/><glyph d="M111 737v338h114v-338h-114z" horiz-adv-x="346" unicode="&#x27;"/><glyph d="M47 383q0 211 61.5 379t184.5 311h113q-244-299-244-690 0-385 244-672h-113q-123 137-184.5 302t-61.5 370z" horiz-adv-x="448" unicode="&#x28;"/><glyph d="M43-289q244 287 244 672 0 391-244 690h113q123-143 184-311t61-379q0-205-61-370t-184-302h-113z" horiz-adv-x="448" unicode="&#x29;"/><glyph d="M55 788l168 86-168 87 68 92 119-113-25 164h115l-23-164 119 113 68-92-168-87 168-86-68-92-119 113 23-164h-115l25 164-119-113z" horiz-adv-x="550" unicode="&#x2a;"/><glyph d="M18 387v115h252v243h115v-243h250v-115h-250v-258h-115v258h-252z" horiz-adv-x="653" unicode="&#x2b;"/><glyph d="M31-223l55 90q23 37 38 73.5t19 59.5v115h115v-115q0-27-14.5-57.5t-35-60-46-57.5-45.5-48h-86z" horiz-adv-x="317" unicode="&#x2c;"/><glyph d="M111 395v101h401v-101h-401z" horiz-adv-x="624" unicode="&#x2d;"/><glyph d="M111 0v115h114v-115h-114z" horiz-adv-x="346" unicode="&#x2e;"/><glyph d="M14 0l330 1233h115l-330-1233h-115z" horiz-adv-x="471" unicode="&#x2f;"/><glyph d="M82 481q0 133 27.5 233.5t79 168 120 101.5 152.5 34q80 0 147.5-31t115.5-94.5 75.5-160.5 27.5-228q0-129-30.5-226.5t-82.5-162-122-97-150-32.5q-78 0-144.5 30.5t-114.5 92-74.5 154.5-26.5 218zM197 487q0-104 20.5-180t55-125 80.5-72.5 100-23.5q53 0 100 24.5t83 75 56.5 127.5 20.5 181q0 109-20.5 188.5t-56.5 131.5-83 78-100 26-99.5-26-81-79-55-134-20.5-192z" horiz-adv-x="907" unicode="&#x30;"/><glyph d="M2 739v101q76 29 133.5 78t91.5 86h111v-1004h-111v840q-16-10-40.5-24.5t-54.5-30-63.5-28-66.5-18.5z" horiz-adv-x="452" unicode="&#x31;"/><glyph d="M90 0v94q0 59 35 114.5t86 108 112.5 103.5 112.5 103 86 107.5 35 114.5q0 94-50 140.5t-128 46.5q-66 0-135.5-35t-116.5-84v123q43 45 106.5 70.5t145.5 25.5q129 0 212-71.5t83-202.5q0-76-33-139.5t-83-120-108.5-106.5-110.5-98-89-96-43-98h504v-100h-621z" horiz-adv-x="761" unicode="&#x32;"/><glyph d="M84 23v127q49-41 105.5-52.5t125.5-11.5q98 0 165 42t67 136q0 49-18.5 87t-61.5 63.5-113.5 39-173.5 13.5v96q51 2 109.5 11.5t109 30 83 56 32.5 91.5q0 92-47 129t-117 37q-55 0-120.5-10.5t-112.5-45.5v111q49 31 104 38t129 7q59 0 109.5-17.5t87.5-49 57.5-74.5 20.5-93q0-205-197-266 47-8 90-27.5t75-50 51.5-73 19.5-93.5q0-141-94.5-214.5t-254.5-73.5q-74 0-131 6t-100 31z" horiz-adv-x="737" unicode="&#x33;"/><glyph d="M12 244v100l463 660h113v-660h131v-100h-131v-244h-107v244h-469zM141 344h340v485z" horiz-adv-x="772" unicode="&#x34;"/><glyph d="M96 8v123q53-33 99.5-40t101.5-7q117 0 179.5 51t62.5 156q0 104-66.5 162.5t-173.5 58.5q-47 0-82-2t-59-6l-47-6v506h475v-101h-361v-303l23 2q12 2 24.5 2h26.5q174 0 267-82t93-223q0-154-98-233.5t-264-79.5q-70 0-119 3t-82 19z" horiz-adv-x="712" unicode="&#x35;"/><glyph d="M78 438q0 129 28.5 236.5t82 183.5 129 118 171.5 42q43 0 78-2t58-8l37-11v-102q-18 6-56.5 14.5t-116.5 8.5q-70 0-124-30t-91.5-85-58-132-20.5-171q70 131 233 131 66 0 121-24.5t94-67.5 60.5-101.5 21.5-124.5q0-80-25.5-140t-69.5-102-103.5-63.5-127.5-21.5q-322 0-321 452zM199 322q0-111 55-173.5t156-62.5q86 0 142 51.5t56 155.5q0 111-55 174t-154 63q-86 0-143-60t-57-148z" horiz-adv-x="794" unicode="&#x36;"/><glyph d="M31 903v101h637v-70l-369-934h-115l344 903h-497z" horiz-adv-x="698" unicode="&#x37;"/><glyph d="M76 268q0 88 47 159t135 114q-63 35-99 95t-36 130q0 53 20.5 99t57.5 80 89 53.5 113 19.5q57 0 108.5-20.5t90.5-54.5 61.5-80 22.5-97q0-70-40-130.5t-103-94.5q92-41 140-114t48-159q0-68-25.5-120t-69.5-87.5-103.5-55-129.5-19.5q-147 0-237 73.5t-90 208.5zM207 279q0-104 51-148.5t145-44.5q90 0 150.5 45t60.5 148q0 39-15 76.5t-43 67.5-67 47-86 17q-86 0-141-58t-55-150zM240 754q0-68 44-117t119-49q33 0 63 13t53.5 35.5 36.5 52.5 13 65-13 65.5-36.5 52-53.5 34-63 12.5q-80 0-121.5-46t-41.5-118z" horiz-adv-x="804" unicode="&#x38;"/><glyph d="M70 692q0 70 22.5 132.5t64.5 108.5 101 72.5 131 26.5q74 0 133.5-32.5t100.5-94 63.5-148.5 22.5-196q0-303-113-439t-317-136q-41 0-82 3t-74 17v109q27-12 71-20.5t107-8.5q141 0 217 98.5t76 290.5q-18-33-45-52.5t-57.5-30.5-61.5-15-55-4q-66 0-121 23.5t-96 65.5-64.5 100.5-23.5 129.5zM186 692q0-106 52.5-162.5t150.5-56.5q51 0 88 20.5t61.5 51 36 64.5 11.5 63q0 117-49.5 188.5t-147.5 71.5q-41 0-78-19.5t-64.5-52.5-44-77-16.5-91z" horiz-adv-x="786" unicode="&#x39;"/><glyph d="M111 0v115h114v-115h-114zM111 602v115h114v-115h-114z" horiz-adv-x="241" unicode="&#x3a;"/><glyph d="M10-223l56 90q23 37 38 73.5t19 59.5v115h115v-115q0-27-14.5-57.5t-35-60-46-57.5-46.5-48h-86zM123 602v115h115v-115h-115z" horiz-adv-x="288" unicode="&#x3b;"/><glyph d="M4 311v54l680 380v-114l-516-293 516-252v-115z" horiz-adv-x="794" unicode="&#x3c;"/><glyph d="M111 252v100h616v-100h-616zM111 467v98h616v-98h-616z" horiz-adv-x="776" unicode="&#x3d;"/><glyph d="M111-29v115l516 252-516 293v114l680-380v-54z" horiz-adv-x="794" unicode="&#x3e;"/><glyph d="M41 836v127q51 33 106.5 44t120.5 11q49 0 97.5-13.5t85-40 59-68.5 22.5-97q0-80-38.5-129t-85-85-85-67-38.5-76v-227h-115v227q0 59 39 98.5t86 75 86 73.5 39 97q0 72-46 102t-106 30q-70 0-127-15.5t-100-66.5zM170 0v115h115v-115h-115z" horiz-adv-x="555" unicode="&#x3f;"/><glyph d="M76 383q0 121 48 226.5t130 184 190.5 124 231.5 45.5q119 0 221-38t177-104.5 118-159 43-198.5q0-84-23.5-150.5t-63.5-114.5-93.5-74-110.5-26q-82 0-119 38t-43 124q-37-86-83-124t-124-38q-47 0-89 16.5t-74.5 50.5-52 87-19.5 125q0 68 25.5 127t68.5 104 99.5 71 119.5 26q57 0 95-28t55-63l16 82h115l-57-336q0-27 4-55.5t11-52 20.5-38.5 31.5-15q45 0 79 27.5t55.5 67.5 31.5 86 10 83q0 59-28.5 129t-84 130-138.5 100-193 40q-111 0-201-46t-152.5-116.5-97.5-155.5-35-161q0-82 30-161t88.5-140.5 144.5-99 200-37.5q80 0 156 15t139 40v-109q-137-47-295-47-123 0-228.5 40t-183 111-121.5 170-44 218zM455 377q0-96 37.5-137t82.5-41q86 0 133.5 67.5t47.5 220.5q0 51-28 84t-75 33q-82 0-140-58.5t-58-168.5z" horiz-adv-x="1302" unicode="&#x40;"/><glyph d="M29 0l368 1004h121l369-1004h-115l-102 276h-424l-103-276h-114zM274 377h355l-176 495z" horiz-adv-x="915" unicode="&#x41;"/><glyph d="M111 0v1004h278q137 0 212-66t75-170q0-80-49-146.5t-127-91.5q98-16 162.5-78.5t64.5-166.5q0-63-24.5-115.5t-68.5-90.5-105.5-58.5-135.5-20.5h-282zM225 100h156q104 0 165.5 53.5t61.5 131.5q0 186-250 186h-133v-371zM225 565h121q94 0 152.5 50.5t58.5 132.5q0 72-50 113.5t-149 41.5h-133v-338z" horiz-adv-x="788" unicode="&#x42;"/><glyph d="M59 485q0 129 40 228.5t113 167 172 102.5 216 35q68 0 122-4t101-27v-123q-61 29-122.5 41.5t-125.5 12.5q-86 0-159.5-32t-126.5-88.5-84-136-31-176.5q0-193 102.5-296t276.5-103q78 0 143.5 16.5t126.5 47.5v-111q-61-37-130.5-45t-151.5-8q-111 0-200 34.5t-151.5 99-96.5 157-34 208.5z" horiz-adv-x="915" unicode="&#x43;"/><glyph d="M111 0v1004h272q528 0 528-494 0-115-37.5-209t-108.5-160.5-171-103.5-223-37h-260zM225 100h146q197 0 310.5 108.5t113.5 301.5q0 393-418 393h-152v-803z" horiz-adv-x="972" unicode="&#x44;"/><glyph d="M111 0v1004h530v-101h-416v-352h373v-98h-373v-353h416v-100h-530z" horiz-adv-x="667" unicode="&#x45;"/><glyph d="M111 0v1004h530v-101h-416v-352h373v-98h-373v-453h-114z" horiz-adv-x="641" unicode="&#x46;"/><glyph d="M63 481q0 119 39 218.5t109 170 167 109.5 212 39q82 0 152.5-7t129.5-38v-129q-63 41-138 57.5t-156 16.5q-88 0-162-32t-126-90.5-82-138-30-176.5q0-197 103.5-296t281.5-99q66 0 117 8t96 33v289h-227v100h344v-463q-78-45-162-56t-182-11q-109 0-199 33.5t-153.5 98-98.5 157-35 206.5z" horiz-adv-x="993" unicode="&#x47;"/><glyph d="M111 0v1004h114v-439h525v439h114v-1004h-114v467h-525v-467h-114z" horiz-adv-x="976" unicode="&#x48;"/><glyph d="M111 0v1004h114v-1004h-114z" horiz-adv-x="350" unicode="&#x49;"/><glyph d="M0-14v112q20-16 44-21t50-5q82 0 125 72.5t43 207.5v652h115v-652q0-186-76-283.5t-207-97.5q-33 0-55.5 5.5t-38.5 9.5z" horiz-adv-x="471" unicode="&#x4a;"/><glyph d="M111 0v1004h114v-508l408 508h143l-272-342 305-662h-127l-258 561-199-248v-313h-114z" horiz-adv-x="876" unicode="&#x4b;"/><glyph d="M111 0v1004h112v-904h408v-100h-520z" horiz-adv-x="630" unicode="&#x4c;"/><glyph d="M111 0v1004h153l354-814 365 814h143v-1004h-110v829l-373-829h-55l-365 825q4-6 4-16v-10-799h-116z" horiz-adv-x="1239" unicode="&#x4d;"/><glyph d="M111 0v1004h145l539-844v844h114v-1004h-143l-541 834v-834h-114z" horiz-adv-x="1019" unicode="&#x4e;"/><glyph d="M74 487q0 252 130 391.5t359 139.5q106 0 193.5-36t150-102.5 96-159.5 33.5-210q0-256-132-390t-361-134q-104 0-191.5 34.5t-149 99-95 158-33.5 209.5zM188 487q0-90 26-164.5t72-127 111.5-81 145.5-28.5q180 0 279.5 112.5t99.5 311.5q0 90-26 165t-73 129-113.5 84-146.5 30q-178 0-276.5-117t-98.5-314z" horiz-adv-x="1107" unicode="&#x4f;"/><glyph d="M111 0v1004h270q162 0 250-77t88-231q0-147-96.5-233t-270.5-86h-125v-377h-116zM227 477h125q123 0 187.5 60.5t64.5 158.5q0 100-50 153.5t-173 53.5h-154v-426z" horiz-adv-x="724" unicode="&#x50;"/><glyph d="M47 487q0 125 34 225.5t97.5 171 153.5 109.5 205 39q106 0 194-38t150.5-106.5 96.5-164.5 34-213q0-168-60.5-284.5t-173.5-180.5q27-8 55.5-22.5t53-38 41-55 16.5-72.5h-115q0 31-21.5 56.5t-49 43.5-55 29.5-41.5 15.5q-35-8-71-12t-73-4q-106 0-193 34.5t-148.5 99-95.5 158-34 209.5zM162 487q0-90 25.5-164.5t71.5-127 112.5-81 146.5-28.5q86 0 156.5 29.5t120 85 76 133.5 26.5 176q0 90-25.5 168t-73.5 134-115 88-146 32q-86 0-156-33t-119-92-74.5-140-25.5-180z" horiz-adv-x="1083" unicode="&#x51;"/><glyph d="M109 0v1004h301q61 0 115.5-17.5t96.5-52.5 66.5-86 24.5-119q0-104-64.5-174t-163.5-92q47-12 82-60.5t70-103.5l190-299h-139l-174 279q-45 72-86 108.5t-109 36.5h-96v-424h-114zM223 532h162q86 0 149.5 49.5t63.5 147.5q0 78-57.5 126t-155.5 48h-162v-371z" horiz-adv-x="868" unicode="&#x52;"/><glyph d="M84 55v138q27-35 97.5-71t193.5-36q113 0 175 54.5t62 152.5q0 70-38.5 108.5t-98 64.5-127 44-127 49-98.5 81-39 136q0 59 27.5 104.5t71.5 76 101.5 46 118.5 15.5q119 0 179.5-17.5t81.5-29.5v-135q-23 27-86.5 54.5t-174.5 27.5q-35 0-68.5-10.5t-61-29-45-45-17.5-57.5q0-57 38-90t95-56.5 125-44 125-55 95-90 38-147.5q0-59-14.5-114.5t-54.5-98.5-108.5-68.5-174.5-25.5q-70 0-119 6t-83 16-55.5 22.5-33.5 24.5z" horiz-adv-x="794" unicode="&#x53;"/><glyph d="M12 903v101h688v-101h-286v-903h-115v903h-287z" horiz-adv-x="712" unicode="&#x54;"/><glyph d="M98 381v623h115v-615q0-160 57.5-231.5t192.5-71.5q131 0 199.5 68.5t68.5 222.5v627h117v-609q0-211-96.5-310t-288.5-99q-186 0-275.5 93t-89.5 302z" horiz-adv-x="944" unicode="&#x55;"/><glyph d="M27 1004h114l312-873 317 873h115l-367-1004h-123z" horiz-adv-x="911" unicode="&#x56;"/><glyph d="M59 1004h115l238-867 247 867h86l238-852 236 852h114l-284-1004h-123l-230 801-221-801h-129z" horiz-adv-x="1392" unicode="&#x57;"/><glyph d="M74 0l329 500-305 504h140l243-429 252 429h141l-317-504 324-500h-148l-252 422-268-422h-139z" horiz-adv-x="958" unicode="&#x58;"/><glyph d="M20 1004h127l252-515 271 515h118l-329-637v-367h-115v360z" horiz-adv-x="808" unicode="&#x59;"/><glyph d="M45 0v31l580 872h-537v101h713v-31l-588-873h578v-100h-746z" horiz-adv-x="849" unicode="&#x5a;"/><glyph d="M111-289v1364h311v-100h-201v-1163h201v-101h-311z" horiz-adv-x="446" unicode="&#x5b;"/><glyph d="M12 1233h115l330-1233h-115z" horiz-adv-x="471" unicode="&#x5c;"/><glyph d="M23-188h200v1163h-200v100h311v-1364h-311v101z" horiz-adv-x="448" unicode="&#x5d;"/><glyph d="M43 395l340 680h53l381-680h-115l-292 516-252-516h-115z" horiz-adv-x="854" unicode="&#x5e;"/><glyph d="M111 0h616v-100h-616v100z" horiz-adv-x="839" unicode="&#x5f;"/><glyph d="M18 1133h115l160-230h-94z" horiz-adv-x="325" unicode="&#x60;"/><glyph d="M88 182q6 72 43 113t87 61.5 107.5 27.5 105.5 15.5 80 22.5 32 49q0 78-53.5 119t-145.5 41q-82 0-137-38t-88-85l-27 113q35 41 97.5 75.5t154.5 34.5q53 0 109.5-14.5t101.5-46 73.5-80.5 28.5-119v-471h-114v66q-29-35-77-57.5t-122-22.5q-49 0-95 11t-82 34.5-57.5 60.5-21.5 90zM203 182q0-35 16.5-54t40-28.5 50-11.5 46.5-2q70 0 116 26.5t71 61.5v164q-20-14-60.5-27.5t-103.5-13.5q-25 0-55.5-6t-57-19.5-45-36-18.5-53.5z" horiz-adv-x="753" unicode="&#x61;"/><glyph d="M109 0v1075h116v-475q45 74 106.5 102.5t143.5 28.5q141 0 219-88t78-262q0-90-23.5-163t-66.5-124-105.5-79.5-140.5-28.5q-74 0-125 26.5t-86 85.5v-98h-116zM225 332q0-45 15.5-89t44-79 66.5-56.5 85-21.5q104 0 162.5 70.5t58.5 224.5q0 123-42 186.5t-140 63.5q-49 0-94-20.5t-80-57.5-55.5-86-20.5-105v-30z" horiz-adv-x="782" unicode="&#x62;"/><glyph d="M59 346q0 88 29 160t79 122 118.5 76.5 150.5 26.5q39 0 72-3t57-7l53-8v-119q-45 20-90 28.5t-92 8.5q-262 0-262-285 0-137 60.5-198.5t185.5-61.5q57 0 105 10t93 33v-106q-41-27-87-32t-99-5q-170 0-271.5 88t-101.5 272z" horiz-adv-x="724" unicode="&#x63;"/><glyph d="M12 381q0 168 81 266t216 98q160 0 250-145v475h117v-1075h-117v98q-35-59-86-85.5t-125-26.5q-78 0-140.5 28.5t-105.5 79.5-66.5 124-23.5 163zM127 381q0-154 58.5-224.5t162.5-70.5q45 0 84 21.5t67.5 56.5 44 79 15.5 89v30q0 55-20.5 106.5t-55 90.5-80 62.5-94.5 23.5q-98 0-140-70.5t-42-193.5z" horiz-adv-x="786" unicode="&#x64;"/><glyph d="M70 356q0 82 24.5 152t69.5 119 105.5 76.5 131.5 27.5q143 0 224.5-85t81.5-259v-63h-521q0-129 66.5-183.5t171.5-54.5q92 0 144.5 23.5t84.5 48.5v-101q-33-25-85-48t-144-23q-78 0-142.5 21.5t-111.5 66.5-73.5 114.5-26.5 167.5zM186 424h404q-4 104-53.5 155.5t-135.5 51.5-143-53.5-72-153.5z" horiz-adv-x="774" unicode="&#x65;"/><glyph d="M10 616v101h146v96q0 123 49 192.5t155 69.5q76 0 125-22v-117q-14 18-35.5 24.5t-50.5 6.5q-68 0-96.5-33t-28.5-121v-96h211v-101h-211v-630h-118v630h-146z" horiz-adv-x="507" unicode="&#x66;"/><glyph d="M59 344q0 98 28 171t74 121 108.5 71.5 133.5 23.5q86 0 137.5-27.5t92.5-91.5v105h115v-694q0-211-94.5-310.5t-299.5-99.5q-131 0-231 41l27 115q57-27 108-42.5t96-15.5q279 0 279 291v88q-25-35-48.5-56.5t-49-31.5-57.5-13-75-3q-72 0-134 25.5t-108 72.5-74 112.5-28 147.5zM174 344q0-53 15.5-100t45-82 71.5-55.5 97-20.5q53 0 91 19.5t65 49 44.5 65.5 29.5 67v100q-12 37-29.5 80t-45.5 79-65.5 60.5-89.5 24.5q-55 0-97-24.5t-71.5-65.5-45-92.5-15.5-104.5z" horiz-adv-x="843" unicode="&#x67;"/><glyph d="M109 0v1075h116v-452q8 29 28.5 51t48.5 38.5 59.5 24.5 62.5 8q147 0 224-75.5t77-192.5v-477h-115v483q0 74-54 118t-132 44q-39 0-75-18.5t-63.5-55-44-90-16.5-123.5v-358h-116z" horiz-adv-x="800" unicode="&#x68;"/><glyph d="M96 0v717h115v-717h-115zM96 831v115h115v-115h-115z" horiz-adv-x="319" unicode="&#x69;"/><glyph d="M-115-354l27 98q6-2 18-2 82 0 125 58.5t43 187.5v729h115v-705q0-186-73.5-278t-209.5-92q-10 0-20 1t-21 3h-4zM98 831v115h115v-115h-115z" horiz-adv-x="292" unicode="&#x6a;"/><glyph d="M109 0v1075h114v-751l314 393h145l-188-236 221-481h-125l-176 381-191-238v-143h-114z" horiz-adv-x="718" unicode="&#x6b;"/><glyph d="M109 0v1075h114v-1075h-114z" horiz-adv-x="346" unicode="&#x6c;"/><glyph d="M109 0v717h116v-94q8 29 28.5 49t48.5 33.5 59.5 19.5 62.5 6q203 0 268-123 33 57 87.5 90t146.5 33q150 0 225.5-70.5t75.5-183.5v-477h-115v483q0 74-54 111t-132 37q-39 0-75-16.5t-63.5-50.5-44-85-16.5-121v-358h-117v483q0 74-54 111t-132 37q-39 0-75-16.5t-63.5-50.5-44-85-16.5-121v-358h-116z" horiz-adv-x="1331" unicode="&#x6d;"/><glyph d="M109 0v717h116v-94q8 29 28.5 49t48.5 33.5 59.5 19.5 62.5 6q150 0 225.5-70.5t75.5-183.5v-477h-115v483q0 74-54 111t-132 37q-39 0-75-16.5t-63.5-50.5-44-85-16.5-121v-358h-116z" horiz-adv-x="825" unicode="&#x6e;"/><glyph d="M72 348q0 186 92 284.5t266 98.5q76 0 139.5-25.5t109.5-73.5 70.5-115.5 24.5-151.5q0-193-93-286t-267-93q-154 0-248 94t-94 268zM186 348q0-119 62-190.5t166-71.5q117 0 181 73.5t64 205.5q0 119-62 192.5t-167 73.5q-111 0-177.5-77t-66.5-206z" horiz-adv-x="843" unicode="&#x6f;"/><glyph d="M109-358v1075h116v-99q35 59 86 86t125 27q78 0 140.5-28.5t105.5-80 66.5-125 23.5-161.5q0-174-78-262t-219-88q-82 0-143.5 28.5t-106.5 102.5v-475h-116zM225 354q0-55 20.5-104t55.5-86 80-57.5 94-20.5q98 0 140 63.5t42 186.5q0 154-58 224.5t-163 70.5q-47 0-85-21.5t-66.5-56.5-44-79-15.5-89v-31z" horiz-adv-x="782" unicode="&#x70;"/><glyph d="M12 336q0 178 88 286.5t246 108.5q74 0 126-26.5t85-86.5v99h117v-1075h-117v475q-43-74-105.5-102.5t-142.5-28.5q-141 0-219 88t-78 262zM127 336q0-123 41-186.5t141-63.5q47 0 92 20.5t80 57.5 55.5 86 20.5 104v31q0 45-15.5 89t-44 79-67.5 56.5-84 21.5q-104 0-161.5-71t-57.5-224z" horiz-adv-x="786" unicode="&#x71;"/><glyph d="M109 0v717h114v-174q25 78 76 133t115 55q33 0 55-6l14-8v-119q-12 10-28.5 21.5t-40.5 11.5q-37 0-72-35t-61.5-87-42-116.5-15.5-122.5v-270h-114z" horiz-adv-x="487" unicode="&#x72;"/><glyph d="M84 31v131q20-27 70.5-51.5t142.5-24.5q86 0 121 24.5t35 92.5q0 53-28 81.5t-69 46-88 31-88 35-68.5 58.5-27.5 102q0 43 20.5 76t53 54.5 74.5 32.5 85 11q88 0 130-9t63-20v-124q-23 16-67 34.5t-126 18.5q-51 0-84.5-14.5t-33.5-59.5q0-43 26.5-64.5t65.5-36 85-27.5 85-37.5 65.5-68.5 26.5-120q0-43-10.5-82t-39-68.5-78.5-48-128-18.5q-102 0-148.5 14t-64.5 31z" horiz-adv-x="624" unicode="&#x73;"/><glyph d="M10 616v101h146v358h118v-358h211v-101h-211v-368q0-88 29-121t96-33q61 0 86 31v-117q-47-22-119-22h-6q-106 0-155 69.5t-49 192.5v368h-146z" horiz-adv-x="509" unicode="&#x74;"/><glyph d="M98 240v477h115v-484q0-74 54.5-110.5t131.5-36.5q39 0 75 16.5t63.5 50 44 85 16.5 120.5v359h117v-717h-117v94q-8-29-29.5-49t-49-33.5-59.5-19.5-61-6q-150 0-225.5 70.5t-75.5 183.5z" horiz-adv-x="825" unicode="&#x75;"/><glyph d="M31 717h121l206-600 217 600h121l-284-717h-113z" horiz-adv-x="724" unicode="&#x76;"/><glyph d="M61 717h115l164-584 178 584h100l168-594 158 594h113l-217-717h-119l-160 551-176-551h-115z" horiz-adv-x="1116" unicode="&#x77;"/><glyph d="M80 0l239 348-233 369h133l170-307 172 307h127l-242-369 242-348h-131l-176 285-174-285h-127z" horiz-adv-x="770" unicode="&#x78;"/><glyph d="M68 717h129l213-619 225 619h123l-336-862q-90-227-256-228-23 0-38 1t-30 5l25 97q2-2 14-2 59 0 92 17t60 85l59 154z" horiz-adv-x="763" unicode="&#x79;"/><glyph d="M74 0v33l413 583h-374v101h549v-39l-420-578h415v-100h-583z" horiz-adv-x="747" unicode="&#x7a;"/><glyph d="M18 315v88q61 6 94 46t33 126v240q0 131 57.5 192.5t186.5 67.5v-100q-61-4-95-46t-34-118v-246q0-82-30.5-136t-102.5-75q70-16 101.5-70.5t31.5-140.5v-237q0-88 27.5-126t101.5-38v-100q-244 0-244 249v246q0 166-127 178z" horiz-adv-x="452" unicode="&#x7b;"/><glyph d="M111-360v1433h114v-1433h-114z" horiz-adv-x="346" unicode="&#x7c;"/><glyph d="M66-258q72 0 99.5 38t27.5 126v237q0 86 31.5 140.5t101.5 70.5q-70 20-101.5 74.5t-31.5 136.5v246q0 154-127 164v100q125-6 183-67.5t58-192.5v-240q0-86 33-125.5t94-46.5v-88q-127-12-127-178v-246q0-250-241-249v100z" horiz-adv-x="452" unicode="&#x7d;"/><glyph d="M92 338q0 86 45 139t127 53q39 0 72-17t64.5-36.5 64.5-37 74-17.5q33 0 55 28.5t24 79.5h87q-8-193-175-192-41 0-75.5 16.5t-66.5 37-62.5 36.5-61.5 16q-88 0-88-106h-84z" horiz-adv-x="796" unicode="&#x7e;"/><glyph d="M111 395v101h401v-101h-401z" horiz-adv-x="624" unicode="&#xad;"/><glyph d="M74 674q10 33 35.5 72.5t68.5 74.5 105.5 58.5 146.5 23.5q66 0 132.5-16.5t120.5-50 88-85 34-120.5v-516q0-43-28.5-71t-57.5-44h-29v631q0 43-23.5 75.5t-61.5 54-84 32-89 10.5q-106 0-170.5-36t-87.5-79l129-115q-14-20-28.5-61t-14.5-111v-401h-115v401q0 70 14.5 111t28.5 61l-57 52q-20 18-38.5 32.5t-18.5 16.5z" horiz-adv-x="905" unicode="&#xe01;"/><glyph d="M70 788v101h114q39 0 76-15.5t64.5-43 44-64.5 16.5-78-19.5-82-48.5-67q-18-16-46.5-58.5t-28.5-107.5v-80q0-35 6-72t23.5-66.5 48-49 79.5-19.5q45 0 76 19.5t49.5 50 25.5 66.5 7 71v596h115v-588q0-59-12.5-115.5t-43-100.5-84-71.5-133.5-27.5q-82 0-134 27.5t-82.5 71.5-43 100.5-12.5 115.5v72q0 74 22.5 119t49 76.5 49 57 22.5 62.5q0 35-26.5 67.5t-59.5 32.5h-114z" horiz-adv-x="774" unicode="&#xe02;"/><glyph d="M74 788v101l86-29q41 35 82 35 27 0 53.5-13.5t46.5-37 33.5-56 13.5-71.5q0-41-18.5-81t-48.5-69q-18-16-47-58t-29-108v-108q0-35 6-72t23.5-66.5 48-49 79.5-19.5q45 0 76 19.5t49.5 50 25.5 66.5 7 71v596h115v-588q0-59-12.5-115.5t-43-100.5-84-71.5-133.5-27.5-133 27.5-83.5 71.5-43 100.5-12.5 115.5v100q0 74 22.5 119t49 77 49 57.5 22.5 62.5q0 20-11 48t-40 28q-33 0-63-48z" horiz-adv-x="778" unicode="&#xe03;"/><glyph d="M102 0v631q0 70 31 121t81 84.5 115.5 50 137.5 16.5q70 0 136.5-16.5t117.5-50 82-85 31-120.5v-631h-115v631q0 43-21.5 75.5t-56.5 54-80 32-94 10.5-94-10.5-80-32-55.5-54-20.5-75.5v-293q20 25 47 51.5t57.5 48 65.5 35.5 74 14v-114q-41 0-76-14.5t-65.5-37-56-49-46.5-51.5v-221h-115z" horiz-adv-x="935" unicode="&#xe04;"/><glyph d="M102 0v631q0 53 19.5 102t53.5 86 79 59.5 94 22.5q31 0 63.5-28.5t57.5-53.5q23 27 57.5 54.5t63.5 27.5q51 0 95-22.5t77-59.5 52.5-86 19.5-102v-631h-115v631q0 66-40 105.5t-97 39.5q-16 0-36-14t-36-29l-41-45-41 45q-16 14-36.5 28.5t-35.5 14.5q-53 0-96-40t-43-105v-293q23 25 48.5 51.5t56 48 65.5 35.5 74 14v-114q-39 0-74-14.5t-66.5-37-57-49-46.5-51.5v-221h-115z" horiz-adv-x="940" unicode="&#xe05;"/><glyph d="M88 788v101l86-29q41 35 84 35 55 0 100-50t45-128q0-41-18-81t-47-69q-20-12-49-58t-29-108q0-84 20.5-143t55.5-97 78-56.5 90-18.5q98 0 163.5 57.5t65.5 149.5v596h115v-588q0-72-18.5-129t-60.5-99-107.5-64.5-157.5-22.5q-37 0-76 8t-72.5 24.5-59.5 42-36 62.5v-123h-115v401q0 74 22.5 119t49.5 77 49.5 57.5 22.5 62.5q0 20-10.5 48t-40.5 28q-29 0-64-48z" horiz-adv-x="952" unicode="&#xe06;"/><glyph d="M49 602h115l121-502q55 0 106 27t90 73 62.5 108.5 23.5 135.5q0 74-24.5 137.5t-64.5 109.5-92 71.5-105 25.5h-17v101h17q80 0 152.5-34t127.5-93.5 88-141 33-176.5q0-98-35-180t-91-140-128-91-147-33h-93z" horiz-adv-x="749" unicode="&#xe07;"/><glyph d="M53 719q14 25 43 56.5t72 60 99.5 48 125.5 19.5q92 0 169-39t131.5-103.5 84-146.5 29.5-170q0-100-35-182t-92-140.5-132-90-157-31.5h-94l-94 358q-2 14-23 15h-57v86h86q43 0 67.5-16.5t36.5-47.5l76-295q66 0 122 28t96 76 62.5 110.5 22.5 129.5q0 80-25.5 145.5t-67.5 113-95 74-111 26.5q-55 0-103-21.5t-87-53.5-68-71-45-73z" horiz-adv-x="880" unicode="&#xe08;"/><glyph d="M61 387v100h86q66 0 90.5-38.5t24.5-104.5v-51q0-45 18.5-83t48-65.5 68.5-43 80-15.5q111 0 170.5 79t59.5 253v143q0 43-14.5 86t-44.5 78-76 56.5-109 21.5q-66 0-117-18.5t-90-46-66.5-60.5-44.5-60l-36 136q20 25 52 51t75 47.5 99 36 128 14.5q80 0 146.5-27.5t113.5-74.5 72.5-108.5 25.5-131.5v-561h-114v123q-20-72-82-104.5t-148-32.5q-166 0-248 87t-82 228v37q0 16-4 32.5t-24 16.5h-58z" horiz-adv-x="921" unicode="&#xe09;"/><glyph d="M49 788v101h115q39 0 75.5-15.5t64.5-43 44.5-64.5 16.5-78-18.5-81-49.5-68q-18-16-47-58.5t-29-107.5v-109q0-35 7.5-66.5t26.5-56 56-40 97-15.5q49 0 83.5 23.5t57 58.5 34 75 11.5 72q0 53-11.5 102.5t-33 87.5-54 60.5-77.5 22.5v100q35 0 68.5 23.5t62.5 65.5 47 100.5 22 126.5h115q0-106-45-205t-145-166q39-12 69.5-43t52-74 33-94 11.5-107q0-59-13.5-117.5t-47.5-105.5-92-76.5-148-29.5q-92 0-150.5 22.5t-92.5 61.5-46.5 91-12.5 111v101q0 74 23 119t49.5 76.5 49 57 22.5 62.5q0 35-25.5 67.5t-60.5 32.5h-115z" horiz-adv-x="819" unicode="&#xe0a;"/><glyph d="M53 788v101l86-29q41 35 84 35 25 0 51.5-13.5t47-37 34-56 13.5-71.5q0-41-18.5-81t-49.5-69q-18-16-47-58t-29-108v-137q0-35 7.5-66.5t27-56 56-40 96.5-15.5q49 0 83.5 23.5t57 58.5 34 75 11.5 72q0 53-11.5 102.5t-33 87.5-54 60.5-75.5 22.5v100q35 0 68.5 23.5t61.5 65.5 46 100.5 23 126.5h114q0-18-4-62.5t-23.5-99-57.5-110.5-105-99q39-12 69.5-43t52-74 33-95 11.5-106q0-59-13.5-117.5t-47.5-105.5-92-76.5-148-29.5q-92 0-150.5 22.5t-92.5 61.5-46 91-12 111v129q0 74 22.5 119t49 77 49 57.5 22.5 62.5q0 20-11.5 48t-39.5 28q-33 0-64-48z" horiz-adv-x="825" unicode="&#xe0b;"/><glyph d="M88 674q41 117 138.5 173t219.5 56q86 0 155-22.5t118-60.5 74.5-87 25.5-102v-201q0-86 19.5-150.5t53.5-107.5 78-64.5 93-21.5q98 0 142 57.5t44 149.5v596h115v-588q0-72-13.5-129t-47-99-92-64.5-148.5-22.5q-37 0-76 8t-72.5 24.5-59.5 43-36 61.5v-123h-114v631q0 43-25 75.5t-62.5 54-83 32-88.5 10.5q-111 0-174-36t-84-79l129-115q-16-20-29.5-61t-13.5-111v-251q0-16 4.5-33t24.5-17h57v-100h-86q-66 0-90 40t-24 103v258q0 70 13 111t30 61l-58 52q-23 20-41 32.5t-16 16.5z" horiz-adv-x="1470" unicode="&#xe0c;"/><glyph d="M55 674q20 57 56 100t83.5 71.5 103.5 43 116 14.5q86 0 155.5-22.5t117.5-60.5 73.5-87 25.5-102v-338q0-92 44-149.5t143-57.5q49 0 93 21.5t78 64.5 53.5 107.5 19.5 150.5v459h114v-805q0-86-33.5-150.5t-86-107.5-116-64.5-122.5-21.5q-92 0-160 23.5t-119 76.5l62 97q39-43 94-70t123-27q49 0 93 17.5t78 52.5 53.5 86 19.5 117v10q-10-37-36-62.5t-60-42-72.5-24.5-75.5-8q-90 0-148.5 22.5t-92.5 64.5-47 99-13 129v330q0 43-23.5 75.5t-61.5 54-84 32-89 10.5q-106 0-171-36t-87-79l129-115q-14-20-28.5-61t-14.5-111v-251q0-16 5-33t23-17h58v-100h-86q-63 0-89 40t-26 103v258q0 70 14.5 111t28.5 61l-57 52q-20 18-39 32.5t-19 16.5z" horiz-adv-x="1437" unicode="&#xe0d;"/><glyph d="M72 0v100h57q20 0 25.5 16.5t5.5 33.5v251q0 70 13 111t30 61l-58 52q-23 20-41 32.5t-16 16.5q41 117 138.5 173t219.5 56q86 0 155-22.5t118-60.5 74.5-87 25.5-102v-875q-4-29-15-61.5t-36-60-64.5-46-101.5-18.5q-78 0-135 32.5t-92 67.5q-39-35-107.5-67.5t-179.5-32.5v100q113 0 180.5 38t106.5 77q47-39 106.5-77t122.5-38q49 0 69.5 30t31.5 56v875q0 43-25 75.5t-62.5 54-83 32-88.5 10.5q-111 0-174-36t-84-79l129-115q-16-20-29.5-61t-13.5-111v-258q0-63-39.5-103t-105.5-40h-57z" horiz-adv-x="923" unicode="&#xe0e;"/><glyph d="M74 0v100h57q20 0 25.5 16.5t5.5 33.5v251q0 70 13 111t30 61l-58 52q-20 18-38.5 32.5t-18.5 16.5q41 117 138.5 173t220.5 56q86 0 154.5-22.5t117.5-60.5 74.5-87 25.5-102v-875q-2-29-11-61.5t-31.5-60-61.5-46-99-18.5q-51 0-94 31.5t-75 68.5l-72-100-78 100q-43-37-96-68.5t-113-31.5v100q66 0 117 38t92 77l78-100 72 100q27-39 72.5-77t99.5-38q25 0 41 8.5t25 21.5 13.5 28.5 6.5 27.5v875q0 43-25 75.5t-61.5 54-82.5 32-89 10.5q-106 0-171-36t-88-79l129-115q-16-20-29.5-61t-13.5-111v-258q0-63-39.5-103t-105.5-40h-57z" horiz-adv-x="925" unicode="&#xe0f;"/><glyph d="M43 719q14 25 43 56.5t72 60 99 48 126 19.5q37 0 71.5-7t69.5-19q18 6 43 15t48.5 24.5 40 37 16.5 50.5h114q0-41-16-72t-42-53.5-55.5-36-54.5-19.5q86-66 132.5-166t46.5-213q0-100-35-182t-92.5-140.5-132-90-156.5-31.5h-94l-92 344q-6 14-25 14h-57v101h86q43 0 67.5-16.5t36.5-47.5l78-295q66 0 121 28t95 76 62.5 110.5 22.5 129.5q0 80-25.5 145.5t-67.5 113-95.5 74-110.5 26.5q-55 0-103.5-21.5t-87-53.5-67.5-71-45-73zM80-330q72 0 129 39t94 76l72-100 63 100q10-18 25.5-38.5t35-37 41-27 42.5-10.5q41 0 56 27t15 57q0 45-10 68.5t-18 32.5h114q8-8 18.5-32t10.5-69q0-31-9-63.5t-30.5-60-58.5-45-90-17.5q-41 0-79 34t-63 66l-63-100-72 100q-43-37-98-68.5t-125-31.5v100z" horiz-adv-x="886" unicode="&#xe10;"/><glyph d="M88 788v101l86-29q41 35 82 35 37 0 67.5-21.5t53.5-58.5l10-22q51 51 108.5 80.5t118.5 29.5q74 0 121-23.5t75-67.5 38-108.5 10-144.5v-559h-115v565q0 137-32.5 187.5t-96.5 50.5q-43 0-101-46t-112.5-114-92.5-146.5-38-142.5v-354h-114v313q0 156 106 320 10 18 18.5 42.5t8.5 41.5q0 20-11.5 48t-39.5 28q-33 0-64-48z" horiz-adv-x="962" unicode="&#xe11;"/><glyph d="M94 459q0 121 22.5 205t59.5 137 85 76.5 99 23.5q29 0 62-27.5t59-54.5q8 12 22.5 26.5t32 27 35 20.5 29.5 8q51 0 95-22.5t76-59.5 50.5-86 18.5-102v-201q0-86 19.5-150.5t53-107.5 77.5-64.5 91-21.5q98 0 143.5 57.5t45.5 149.5v596h114v-588q0-72-13-129t-47-99-92-64.5-151-22.5q-35 0-73.5 8t-73.5 24.5-60.5 42-33.5 62.5v-123h-115v631q0 33-10 63.5t-27.5 55-42 40-51.5 15.5q-16 0-37.5-14.5t-34.5-28.5l-41-45-43 45q-14 14-34.5 28.5t-36.5 14.5q-23 0-50.5-17.5t-51-57.5-40-106.5-16.5-164.5q0-70 18.5-138.5t54-124 86-90 113.5-34.5q33 0 53.5 6t30.5 14v-94q-14-6-32.5-9t-51.5-3q-92 0-163.5 41t-122 107.5-76 151.5-25.5 173z" horiz-adv-x="1490" unicode="&#xe12;"/><glyph d="M88 674q41 117 138.5 173t219.5 56q86 0 155-22.5t118-60.5 74.5-87 25.5-102v-338q0-92 44-149.5t143-57.5q47 0 91 21.5t77.5 64.5 54 107.5 20.5 150.5v459h115v-889h-115v123q-12-35-37.5-61.5t-58.5-43-72-24.5-75-8q-92 0-150.5 22.5t-92.5 64.5-46 99-12 129v330q0 43-25 75.5t-62.5 54-83 32-88.5 10.5q-111 0-174-36t-84-79l129-115q-16-20-29.5-61t-13.5-111v-251q0-16 4.5-33t24.5-17h57v-100h-86q-66 0-90 40t-24 103v258q0 70 13 111t30 61l-58 52q-23 20-41 32.5t-16 16.5z" horiz-adv-x="1474" unicode="&#xe13;"/><glyph d="M76 459q0 117 34.5 200.5t90 138 125 80 137.5 25.5q70 0 134.5-16.5t114.5-50 79.5-85 29.5-120.5v-631h-114v631q0 43-19.5 75.5t-53.5 54-78 32-93 10.5q-47 0-96.5-19.5t-88-61.5-63.5-107.5-25-155.5q0-72 18.5-138.5t54.5-118.5 86-84 114-32q33 0 53.5 6t32.5 14v-108q-16-6-34.5-9t-51.5-3q-76 0-145.5 33.5t-124 95-86 148.5-31.5 196z" horiz-adv-x="925" unicode="&#xe14;"/><glyph d="M82 459q0 121 22.5 205t60.5 137 86 76.5 97 23.5q31 0 63.5-28.5t57.5-53.5q23 27 57.5 54.5t63.5 27.5q49 0 93-22.5t76-59.5 50-86 18-102v-631h-114v631q0 66-38 113t-93 47q-16 0-36-14.5t-36-28.5l-41-46-41 46q-16 14-36.5 28.5t-35.5 14.5q-23 0-50-14.5t-52-52.5-41-102.5-16-162.5q0-72 19.5-138.5t55-118.5 86-84 111.5-32q33 0 53.5 6t32.5 14v-108q-16-6-34.5-9t-51.5-3q-92 0-164 41t-121 107.5-75.5 151.5-26.5 173z" horiz-adv-x="933" unicode="&#xe15;"/><glyph d="M74 674q41 117 138 173t220 56q86 0 154.5-22.5t118-60.5 75-87 25.5-102v-516q0-41-30-70t-56-45h-29v631q0 43-24.5 75.5t-62.5 54-83 32-88 10.5q-111 0-174-36t-84-79l129-115q-16-20-29.5-61t-13.5-111v-251q0-16 4-33t25-17h57v-100h-86q-66 0-90.5 40t-24.5 103v258q0 70 13.5 111t29.5 61l-57 52q-23 18-40 31.5t-17 17.5z" horiz-adv-x="905" unicode="&#xe16;"/><glyph d="M111 0v889h114v-121q10 35 36 60.5t59.5 42 72.5 24.5 76 8q182 0 263-87t81-228v-588h-115v594q0 45-18 84t-49 66.5-73 43-89 15.5q-49 0-93-21.5t-78-64.5-53.5-107.5-19.5-150.5v-459h-114z" horiz-adv-x="915" unicode="&#xe17;"/><glyph d="M84 690q0 213 330 213 80 0 143.5-9t109.5-20.5 71.5-21.5 31.5-14v-142q-18 8-56 25.5t-86 36-103.5 32-110.5 13.5q-123 0-169-27.5t-46-85.5q0-61 45-83.5t111.5-31 144.5-12.5 144.5-28.5 111.5-81 45-166.5q0-59-20.5-113.5t-59.5-96.5-95.5-66.5-125.5-24.5h-115q-70 0-121 24.5t-85 66.5-50 97-16 115v129h114v-137q0-35 11.5-70t34-62.5 58.5-45 83-17.5h57q45 0 85 16.5t68.5 43 45 59.5 16.5 65q0 94-45 135t-111.5 55.5-144.5 16.5-144.5 17.5-111.5 57.5-45 138z" horiz-adv-x="886" unicode="&#xe18;"/><glyph d="M102 301v588h115v-596q0-92 65.5-149.5t163.5-57.5q47 0 91.5 21.5t78 64.5 54 107.5 20.5 150.5v459h115v-889h-115v123q-12-35-37.5-61.5t-58.5-43-72-24.5-76-8q-184 0-264 87t-80 228z" horiz-adv-x="915" unicode="&#xe19;"/><glyph d="M102 301v588h115v-596q0-35 10.5-72t34-66.5 58-49 83.5-19.5h86q47 0 82 19.5t58.5 49 35 66.5 11.5 72v596h115v-588q0-59-16.5-115.5t-50.5-100.5-85-71.5-121-27.5h-143q-70 0-121 27.5t-85 71.5-50.5 100.5-16.5 115.5z" horiz-adv-x="892" unicode="&#xe1a;"/><glyph d="M51 301v588h115v-596q0-35 10-72t32.5-66.5 58.5-49 85-19.5h86q47 0 82 19.5t58.5 49 35 66.5 11.5 72v854h114v-846q0-59-16-115.5t-50-100.5-85-71.5-121-27.5h-143q-72 0-123 27.5t-84 71.5-49.5 100.5-16.5 115.5z" horiz-adv-x="843" unicode="&#xe1b;"/><glyph d="M90 674q0 33 4 69.5t18.5 69.5 41 54.5 69.5 21.5h86v-101h-57q-16 0-25.5-14t-13.5-32.5-5-38-1-31.5q0-147 28.5-257t61.5-186l180 416h74l176-416q16 31 34.5 81t35 127 30 187.5 21.5 264.5h115q-10-170-29-306.5t-43.5-245-52-191.5-54.5-146h-75l-195 487-192-487h-76q-53 131-100.5 297t-55.5 377z" horiz-adv-x="1046" unicode="&#xe1c;"/><glyph d="M41 674q0 33 5 69.5t19.5 69.5 40 54.5 68.5 21.5h86v-101h-57q-16 0-25.5-14t-13.5-32.5-5-38-1-31.5q0-147 28.5-257t61.5-186l180 416h76l174-416q20 37 42.5 103.5t41 174 31 264.5 12.5 376h119q0-221-17.5-396.5t-44-313.5-60.5-245.5-67-191.5h-76l-192 487-195-487h-75q-53 131-100.5 297t-55.5 377z" horiz-adv-x="1009" unicode="&#xe1d;"/><glyph d="M68 889h116l187-637 188 637h74l186-637 189 637h116l-258-889h-75l-195 664-193-664h-75z" horiz-adv-x="1193" unicode="&#xe1e;"/><glyph d="M31 889h116l187-637 188 637h74l186-637 265 895h116l-334-1147h-75l-195 664-192-664h-78z" horiz-adv-x="1224" unicode="&#xe1f;"/><glyph d="M74 0v100h57q20 0 25.5 16.5t5.5 33.5v251q0 70 13 111t30 61l-58 52q-20 18-38.5 32.5t-18.5 16.5q41 117 138.5 173t220.5 56q86 0 154.5-22.5t117.5-60.5 74.5-87 25.5-102v-516q0-41-28.5-70t-57.5-45h-28v631q0 43-25 75.5t-61.5 54-82.5 32-89 10.5q-106 0-171-36t-88-79l129-115q-16-20-29.5-61t-13.5-111v-258q0-63-39.5-103t-105.5-40h-57z" horiz-adv-x="921" unicode="&#xe20;"/><glyph d="M111 0v889h114v-459q0-86 19.5-150.5t53.5-107.5 78-64.5 93-21.5 91 15.5 73 42 48 64.5 17 85v596h115v-588q0-141-81-228t-263-87q-37 0-76 8t-72.5 24.5-59 43-36.5 61.5v-123h-114z" horiz-adv-x="915" unicode="&#xe21;"/><glyph d="M82 301q0 78 44 128t122 75q-63 29-100 75t-37 109q0 57 20.5 97t53 66 72.5 38 81 14q33 0 52.5-3t31.5-7l18-10v-115l-22 10q-31 10-78 10-49 0-82-29.5t-33-70.5q0-66 66.5-97.5t165.5-31.5v-100q-66 0-115-14.5t-81-37-48-51-16-55.5q0-37 11-76t38.5-69.5 70.5-50 109-19.5q63 0 107.5 19.5t72 49 38.5 66.5 11 72v596h115v-588q0-59-17.5-115.5t-58.5-100.5-106.5-71.5-161.5-27.5-162.5 27.5-106.5 71.5-57.5 100.5-17.5 115.5z" horiz-adv-x="872" unicode="&#xe22;"/><glyph d="M90 45v133q25-33 86.5-62.5t171.5-29.5q201 0 201 172 0 66-34 98.5t-85 52-110.5 33-110.5 40-85 73.5-34 133q0 53 24.5 94t65.5 68 92.5 40 104.5 13q106 0 156.5-22.5t74.5-42.5v-146q-16 37-67.5 74t-163.5 37q-66 0-119-29t-53-86 32.5-87 81-47 106.5-31.5 108.5-43 87-80 43.5-141.5q0-53-13.5-102.5t-48.5-87-96.5-60-157.5-22.5q-125 0-183.5 21.5t-74.5 37.5z" horiz-adv-x="741" unicode="&#xe23;"/><glyph d="M23 674q18 57 54 100t83 71.5 103 43 118 14.5q86 0 154.5-22.5t116.5-60.5 75-87 27-102v-946q0-39-29-71t-57-44h-29v1061q0 43-24.5 75.5t-62.5 54-83 32-88 10.5q-111 0-174.5-36t-83.5-79l129-115q-16-20-29.5-61t-13.5-111v-251q0-16 4-33t25-17h55v-100h-84q-66 0-90.5 40t-24.5 103v258q0 70 13.5 111t27.5 61l-55 52q-23 20-41.5 32.5t-15.5 16.5z" horiz-adv-x="858" unicode="&#xe24;"/><glyph d="M98 229q0 80 37 130.5t90.5 79 112.5 39.5 106 11q12 0 28.5-1t33.5-1q27 0 54.5 2.5t49 10.5 34.5 22.5 13 38.5q0 45-17 89t-49 78-77 54.5-100 20.5q-49 0-91-16.5t-78-42-63.5-57.5-46.5-62l-33 131q23 27 52.5 53.5t67.5 47 85 33.5 107 13q68 0 131-21.5t114.5-64.5 82-106.5 30.5-149.5v-561h-115v418q-8-10-52-20.5t-148-10.5q-20 0-61.5-7t-81.5-24.5-70.5-48.5-30.5-78q0-86 54.5-114.5t160.5-28.5q59 0 86 14v-100q-14-6-37.5-10t-62.5-4q-168 0-242 57t-74 186z" horiz-adv-x="872" unicode="&#xe25;"/><glyph d="M23 0v100h57q18 0 23.5 16.5t5.5 33.5v251q0 70 13 111t30 61l-58 52q-20 18-38.5 32.5t-18.5 16.5q20 57 56 100t83 71.5 103.5 43 115.5 14.5q86 0 154.5-22.5t118-60.5 75-87 25.5-102v-946q0-41-28.5-72t-57.5-43h-29v1061q0 43-24.5 75.5t-61.5 54-83 32-89 10.5q-106 0-170.5-36t-87.5-79l129-115q-14-20-28.5-61t-14.5-111v-258q0-63-40-103t-103-40h-57z" horiz-adv-x="874" unicode="&#xe26;"/><glyph d="M72 731q57 92 144 132t187 40q88 0 164-37t131.5-99 87-145 31.5-178q0-98-32.5-182t-89-145.5-132.5-96-160-34.5q-70 0-152.5 26.5t-133.5 85.5l33 115q10-14 32.5-35.5t56-42 75.5-35 89-14.5q61 0 116.5 28.5t95.5 78 63.5 114 23.5 137.5q0 74-23.5 138.5t-63.5 113.5-95 78-117 29q-57 0-104-21.5t-84-53.5-63.5-67.5-42.5-64.5z" horiz-adv-x="890" unicode="&#xe27;"/><glyph d="M80 0v631q0 70 30.5 121t82 84.5 117 50 136.5 16.5q76 0 146-20 20 6 42.5 16t42 25.5 32 35 12.5 44.5h115q0-35-12.5-63t-32-48.5-43-34.5-48.5-24q51-33 81-83.5t30-119.5v-631h-115v631q0 43-20.5 75.5t-55 54-79.5 32-95 10.5q-49 0-94-10.5t-79.5-32-56-54-21.5-75.5v-293q23 25 48 51.5t56 48 65.5 35.5 73.5 14v-114q-41 0-75.5-14.5t-65.5-37-56.5-49-45.5-51.5v-221h-115z" horiz-adv-x="933" unicode="&#xe28;"/><glyph d="M102 301v588h115v-596q0-35 11.5-72t34-66.5 58-49 82.5-19.5h86q49 0 84 19.5t58.5 49 34 66.5 10.5 72v137h-187v100h187v359h115v-359h86v-100h-86v-129q0-59-16.5-115.5t-50.5-100.5-85-71.5-121-27.5h-143q-70 0-121 27.5t-85 71.5-50.5 100.5-16.5 115.5z" horiz-adv-x="944" unicode="&#xe29;"/><glyph d="M76 229q0 80 37 130.5t90 79 112.5 39.5 106.5 11q12 0 28.5-1t32.5-1q27 0 54.5 2.5t49 10.5 35 22.5 13.5 38.5q0 45-17.5 89t-49 78-77 54.5-100.5 20.5q-45 0-84-13.5t-71.5-35-59-49-47.5-56.5l-31 127q45 47 116 87t177 40q66 0 133-22 18 6 42 15t44.5 24.5 33.5 35 13 48.5h115q0-39-14.5-68t-36-50.5-48-34.5-50.5-22q57-43 92-109.5t35-158.5v-561h-115v418q-10-10-52-20.5t-149-10.5q-20 0-61-7t-81-24.5-71-48.5-31-78q0-43 16.5-70.5t46.5-44 68.5-22.5 84.5-6q59 0 86 14v-100q-14-6-38-10t-63-4q-152 0-233.5 57t-81.5 186z" horiz-adv-x="868" unicode="&#xe2a;"/><glyph d="M111 0v889h114v-389l389 389h162l-270-271q51-14 98-41.5t84-69.5 59.5-96.5 22.5-123.5v-287h-115v258q0 63-19.5 112.5t-51 83-74.5 53-92 23.5l-193-194v-336h-114z" horiz-adv-x="868" unicode="&#xe2b;"/><glyph d="M31 889h119l186-637 188 637h74l186-637 138 465q4 14 6 29.5t2 21.5q0 33-16.5 60.5t-42 49-55.5 39-56 29.5q45 14 95 34.5t93 46.5 72 55.5 29 64.5h116q0-45-23.5-78t-60.5-57.5-80-40-81-25.5q47-23 85.5-74t38.5-110q0-4-1-19.5t-3-25.5l-211-717h-75l-193 664-194-664h-76z" horiz-adv-x="1222" unicode="&#xe2c;"/><glyph d="M70 602q18 70 57 125t91 94 114.5 60.5 128.5 21.5q102 0 180-42t130-108.5 79-148.5 27-160q0-104-35-189t-93.5-144.5-133-92-154.5-32.5q-78 0-146.5 26.5t-121 72.5-83 106.5-30.5 125.5q0 23 6 45.5t21.5 40 42 28.5 67.5 11h158v-96h-144q-29 0-36-7t-7-22q0-35 21.5-74.5t58.5-74.5 86-58.5 107-23.5q57 0 111.5 25.5t96.5 72.5 67.5 114 25.5 146q0 80-24.5 145.5t-66.5 113-96.5 74-113.5 26.5q-55 0-100.5-20.5t-80-51.5-57-65.5-33.5-63.5h-120z" horiz-adv-x="950" unicode="&#xe2d;"/><glyph d="M45 602q20 70 58 125t90.5 94 115 60.5 129.5 21.5q37 0 73-7t67-19q18 6 43.5 15t48 24.5 39 37 16.5 50.5h115q0-41-16.5-72t-41-52.5-53.5-35-55-19.5q92-70 135-175t43-206q0-104-35-189t-93-144.5-133-92-153-32.5-146.5 26.5-121.5 72.5-84 106.5-31 125.5q0 45 28 78t110 33h157v-82h-143q-27 0-35-7t-8-22q0-35 21.5-74.5t58.5-74.5 87-58.5 107-23.5q55 0 108.5 25.5t96.5 72.5 68.5 114 25.5 146q0 80-24.5 145.5t-66.5 113-96 74-112 26.5q-55 0-101-20.5t-81-51.5-57.5-65.5-32.5-63.5h-121z" horiz-adv-x="933" unicode="&#xe2e;"/><glyph d="M12 889h115q23-86 69-137.5t132-51.5 147.5 48.5 85.5 140.5h125v-580q0-74-7-131t-26.5-97-56.5-60.5-96-20.5h-15v100h15q16 0 29.5 5.5t22.5 27 14 64.5 5 118v430q-12-23-32.5-48t-50-46.5-69.5-36-91-14.5q-129 0-211 77t-105 212z" horiz-adv-x="794" unicode="&#xe2f;"/><glyph d="M98 258v86h115v-80q0-27 16.5-38t69.5-11h172l-25-100h-176q-86 0-129 40t-43 103zM98 717v86h115v-78q0-29 16.5-40t69.5-11h172l-25-101h-176q-86 0-129 40t-43 104z" horiz-adv-x="495" unicode="&#xe30;"/><glyph d="M-502 1219v86h115v-80q0-27 15.5-38t70.5-11h301l-27-101h-303q-86 0-129 39t-43 105z" unicode="&#xe31;"/><glyph d="M8 692v146q74 45 145.5 55t133.5 10q59 0 122.5-19.5t116-59.5 86-102.5 33.5-148.5v-573h-115v545q0 63-19 111.5t-53 81-78 49-93 16.5q-104 0-173-34t-106-77z" horiz-adv-x="743" unicode="&#xe32;"/><glyph d="M-322 1206q0 33 13.5 62.5t35 52 51 36 62.5 13.5 61.5-13.5 51-36 36-52 13.5-62.5q0-66-48-112.5t-114-46.5q-33 0-62.5 13t-51 34.5-35 50-13.5 61.5zM-225 1206q0-27 18.5-45t46.5-18q29 0 47.5 18.5t18.5 44.5q0 29-18.5 48.5t-47.5 19.5-47-19.5-18-48.5zM8 692v146q74 45 145.5 55t133.5 10q59 0 122.5-19.5t116-59.5 86-102.5 33.5-148.5v-573h-115v545q0 63-19 111.5t-53 81-78 49-93 16.5q-104 0-173-34t-106-77z" horiz-adv-x="743" unicode="&#xe33;"/><glyph d="M-676 1075l31 101h543v-101h-574z" unicode="&#xe34;"/><glyph d="M-676 1075l31 101h428v129h115v-230h-574z" unicode="&#xe35;"/><glyph d="M-657 1075l30 101h318q-2 4-2 12 0 2-2 4 0 61 33.5 101t95.5 40q55 0 92-36.5t37-92.5q0-55-37-92t-92-37h-473zM-227 1204q0-18 12-30.5t31-12.5q18 0 30.5 12.5t12.5 30.5-12.5 30.5-30.5 12.5-30.5-12.5-12.5-30.5z" unicode="&#xe36;"/><glyph d="M-676 1075l31 101h256v129h115v-129h57v129h115v-230h-574z" unicode="&#xe37;"/><glyph d="M-303-172h86q66 0 90.5-40t24.5-103v-144h-115v135q0 18-4 35t-25 17h-57v100z" unicode="&#xe38;"/><glyph d="M-561-172h86q41 0 61.5-15.5t30.5-37 13-48 10.5-48 22.5-37 48-15.5 52.5 12.5 19.5 45.5v143h115v-152q0-29-7.5-56.5t-27-48-56-32.5-96.5-12q-59 0-95 12t-56.5 32.5-27.5 48-7 56.5q0 18-4 35t-25 17h-57v100z" unicode="&#xe39;"/><glyph d="M-217-172h115v-115h-115v115z" unicode="&#xe3a;"/><glyph d="M88 0v1004h195v172h114v-175q123-8 189.5-73.5t66.5-159.5q0-80-48-146.5t-130-91.5q100-16 165-78.5t65-166.5q0-123-83-200t-225-85v-172h-114v172h-195zM203 100h155q104 0 166 53.5t62 131.5q0 186-250 186h-133v-371zM203 565h121q94 0 151 50.5t57 132.5q0 72-49 113.5t-147 41.5h-133v-338z" horiz-adv-x="745" unicode="&#xe3f;"/><glyph d="M109 143v746h114v-754q0-16 4-32.5t25-16.5h57v-86h-86q-66 0-90 40t-24 103z" horiz-adv-x="337" unicode="&#xe40;"/><glyph d="M109 143v746h114v-754q0-16 4-32.5t25-16.5h57v-86h-86q-63 0-88.5 40t-25.5 103zM453 143v746h114v-754q0-16 4-32.5t25-16.5h57v-86h-86q-63 0-88.5 40t-25.5 103z" horiz-adv-x="729" unicode="&#xe41;"/><glyph d="M35 1153q0 92 67.5 136t221.5 44h235v-100h-207q-53 0-92-1t-63.5-9.5-35.5-25.5-11-50q0-27 9-55.5t20-64.5 20.5-83 9.5-113v-696q0-16 4-32.5t25-16.5h55v-86h-84q-66 0-90.5 40t-24.5 103v688q0 66-9 113t-20.5 84-20.5 66.5-9 58.5z" horiz-adv-x="305" unicode="&#xe42;"/><glyph d="M-254 1231q12 16 31.5 34.5t48.5 34 67.5 24.5 90.5 9q74 0 128-22.5t90-57 52-81 16-91.5q0-29-9-58.5t-19.5-66-19.5-84-9-112.5v-625q0-16 4-32.5t25-16.5h57v-86h-86q-66 0-90.5 40t-24.5 103v617q0 66 9.5 113t19.5 82.5 19.5 64.5 9.5 55q0 63-47.5 110.5t-153.5 47.5q-31 0-57.5-13.5t-49-33-39-42-26.5-42.5z" horiz-adv-x="333" unicode="&#xe43;"/><glyph d="M-266 1233v100h14q47 0 86-24.5t64-48.5q14 25 48 49t87 24q111 0 155.5-72.5t44.5-207.5v-918q0-16 4.5-32.5t24.5-16.5h57v-86h-86q-63 0-88.5 40t-25.5 103v910q0 35-2 67.5t-11.5 57-27 40-49.5 15.5q-16 0-34-10.5t-33-25.5-28.5-32.5-21.5-31.5q-14 14-33.5 31.5t-41 32.5-45 25.5-44.5 10.5h-14z" horiz-adv-x="352" unicode="&#xe44;"/><glyph d="M6 692v146q74 45 145.5 62.5t133.5 17.5q59 0 122.5-22t115.5-65 86-107.5 34-150.5v-888q0-41-28.5-72t-57.5-43h-29v975q0 63-19.5 114.5t-53 86-77.5 53-93 18.5q-104 0-173-40t-106-85z" horiz-adv-x="747" unicode="&#xe45;"/><glyph d="M27 645q0 131 47 202t153 71q53 0 86-25t52-49q16 25 48.5 49.5t86.5 24.5q111 0 155.5-72t44.5-207v-954q0-41-28.5-72t-57.5-43h-28v1069q0 33-2 65.5t-10.5 57-27 40-50.5 15.5q-33 0-70-33.5t-61-66.5q-12 12-26.5 29.5t-31 33-36 26.5-40.5 11q-29 0-45-12t-25-31.5-13.5-46.5-6.5-55v-13q10-129 86-198l-28-109q-72 41-122 114t-50 179z" horiz-adv-x="802" unicode="&#xe46;"/><glyph d="M-705 1202q0 53 26 85t61.5 48.5 73.5 20.5 63 4q121 0 194.5 22.5t120.5 49.5v-99q-37-20-102.5-38.5t-190.5-18.5q-82 0-109.5-22.5t-27.5-51.5q0-20 17.5-38.5t39.5-18.5q43 0 62.5 17.5t27.5 33.5h39q6-18 22.5-34.5t51.5-16.5q12 0 16.5 3t4.5 15v15h106v-19q0-53-28.5-75.5t-71.5-22.5q-33 0-55.5 8t-37 19.5-20.5 20.5-8 11q-8-20-32.5-39.5t-76.5-19.5q-20 0-48.5 6t-54.5 22.5-44.5 43-18.5 69.5z" unicode="&#xe47;"/><glyph d="M-217 1075v230h115v-230h-115z" unicode="&#xe48;"/><glyph d="M-557 1204v101h98q47 0 67.5-20.5t31-44 17.5-44 28-20.5h315l-27-101h-317q-43 0-65.5 1t-34 8.5-13.5 23.5-2 45v8q-2 16-7 29.5t-21 13.5h-70z" unicode="&#xe49;"/><glyph d="M-668 1196q0 39 27 74t88 35q39 0 62.5-10.5t31.5-18.5q8 8 32 18.5t69 10.5q47 0 67.5-20.5t30.5-44 17-44 28-20.5h215l-27-101h-217q-68 0-89 22.5t-25 49.5-4 49.5-25 22.5q-16 0-29.5-18.5t-13.5-39.5h-57q0 20-10.5 39t-26.5 19q-18 0-23.5-15.5t-5.5-36.5q0-39 12.5-62.5t24.5-29.5h-115q-16 16-26.5 41t-10.5 80z" unicode="&#xe4a;"/><glyph d="M-332 1139v102h115v64h115v-64h114v-102h-114v-64h-115v64h-115z" unicode="&#xe4b;"/><glyph d="M-217 1075v43q0 74 43 130.5t129 56.5h129l-25-101h-75q-43 0-64.5-27.5t-21.5-66.5v-35h-115z" unicode="&#xe4c;"/><glyph d="M-322 1206q0 33 13.5 62.5t35 52 51 36 62.5 13.5 61.5-13.5 51-36 36-52 13.5-62.5q0-66-48-112.5t-114-46.5q-33 0-62.5 13t-51 34.5-35 50-13.5 61.5zM-225 1206q0-27 18.5-45t46.5-18q29 0 47.5 18.5t18.5 44.5q0 29-18.5 48.5t-47.5 19.5-47-19.5-18-48.5z" unicode="&#xe4d;"/><glyph d="M-240 1153q0 70 49.5 111t120.5 41q0 66 48.5 97.5t152.5 31.5v-72q-29 0-54.5-2t-44-15.5-29.5-43-11-82.5q-41 0-79-16.5t-38-61.5q0-31 23-66h-115q-23 35-23 78z" unicode="&#xe4e;"/><glyph d="M76 358q0 80 30.5 151t83 123 123 82.5 150.5 30.5q82 0 152.5-30.5t123-82.5 82-123 29.5-151-29.5-150.5-82-122.5-123-83-152.5-31q-80 0-150.5 31t-123 83-83 123-30.5 150zM190 358q0-55 21.5-105t58.5-87 87.5-58.5 105.5-21.5q57 0 106 21.5t86 58.5 58.5 87 21.5 105q0 57-21.5 106.5t-58.5 86.5-86 58.5-106 21.5q-55 0-105.5-21.5t-87.5-58.5-58.5-86-21.5-107zM276 358q0 80 54.5 133.5t132.5 53.5q80 0 133-53.5t53-133.5q0-78-53-132t-133-54q-78 0-132.5 54.5t-54.5 131.5z" horiz-adv-x="925" unicode="&#xe4f;"/><glyph d="M76 358q0 80 30.5 148.5t83 119 123 78 150.5 27.5q82 0 152.5-27.5t123-78 82-119 29.5-148.5-29.5-148.5-82-118.5-123-77.5-152.5-27.5q-80 0-150.5 27.5t-123 77.5-83 119-30.5 148zM190 358q0-55 21.5-105t58.5-87 87.5-58.5 105.5-21.5q57 0 106 21.5t86 58.5 58.5 87 21.5 105q0 57-21.5 106.5t-58.5 86.5-86 58.5-106 21.5q-55 0-105.5-21.5t-87.5-58.5-58.5-86-21.5-107z" horiz-adv-x="925" unicode="&#xe50;"/><glyph d="M51 401q0 66 29 126.5t81 105.5 122.5 71.5 154.5 26.5q82 0 153-27.5t123-78 81.5-119 29.5-148.5q0-92-29.5-169.5t-81.5-136-123-91.5-153-33h-17t-20 2l29 99h8q57 0 106.5 25.5t86.5 69.5 58.5 104.5 21.5 129.5q0 57-21.5 106.5t-58.5 86.5-86 58.5-107 21.5q-74 0-126-23.5t-83.5-58.5-47-75-15.5-73q0-72 25.5-122t93.5-50q33 0 59.5 20.5t26.5 55.5v39h114v-43q0-29-11-58.5t-35.5-55-62.5-42-91-16.5q-43 0-85 17.5t-75 51-53.5 85-20.5 118.5z" horiz-adv-x="901" unicode="&#xe51;"/><glyph d="M-57 1047v100h28q74 0 124-26.5t80-67.5 42-90.5 12-94.5v-616q0-53 17.5-85t44-50.5 56.5-24.5 54-6h269q27 0 56.5 6t55 24.5 43 50.5 17.5 85v207q0 27-6.5 57.5t-18.5 57-33.5 43-52.5 16.5q-23 0-39-10.5t-27.5-22.5-18.5-24.5-9-16.5q0 4-6 16.5t-18.5 24.5-30 22.5-37.5 10.5q-43 0-64.5-27.5t-21.5-60.5q0-47 16.5-75t41-43 52-20.5 49.5-7.5v-96q-33 4-79.5 13.5t-89.5 34-74 70.5-31 124q0 27 8 59.5t28.5 60 52.5 47 81 19.5q72 0 123-51 14 14 33 25 16 10 38.5 18t51.5 8q55 0 93-24.5t60.5-63.5 32.5-87 10-97v-201q0-76-22.5-128t-58-84-81.5-46-96-14h-325q-45 0-91 14t-83 46-60.5 84-23.5 128v616q0 31-7.5 62t-26 55.5-52 40-86.5 15.5z" horiz-adv-x="1030" unicode="&#xe52;"/><glyph d="M90 373q0 94 21.5 162.5t58.5 111.5 88 63.5 113 20.5q45 0 77.5-14.5t57-37 42-49 30.5-50.5q14 25 32.5 51t43 48.5 56 37 72.5 14.5q57 0 108.5-20.5t89.5-63.5 59.5-111.5 21.5-162.5q0-141-34-232.5t-66-140.5h-115q33 49 66.5 140t33.5 233q0 117-42 188.5t-122 71.5q-31 0-60.5-20.5t-56-52.5-49-70.5-38.5-73.5q-16 35-40 73.5t-50.5 70.5-56.5 52.5-60 20.5q-31 0-61.5-12.5t-53.5-43-37-81-14-123.5q0-57 13-109.5t39-92.5 64.5-63.5 88.5-23.5q37 0 53 10l18 8v-106q-12-4-27.5-7t-43.5-3q-63 0-121 27.5t-102 77.5-70.5 122-26.5 160z" horiz-adv-x="1155" unicode="&#xe53;"/><glyph d="M23 358q0 70 18 134.5t54 114.5 89.5 80 124.5 30h344q31 0 61.5 8t55.5 29.5 40 55.5 15 87v250h115v-244q0-76-20.5-130t-55.5-89-82-51.5-100-16.5h-373q-43 0-75.5-22.5t-54-58-33-81.5-11.5-96q0-49 11.5-95t33-82 54-58.5 75.5-22.5h348q-31 16-64.5 43t-61 65-46 86-18.5 107h127q0-66 28.5-120t70.5-95 90-63.5 85-22.5h72v-100h-631q-72 0-125 29.5t-89 80-54 115-18 133.5z" horiz-adv-x="1036" unicode="&#xe54;"/><glyph d="M31 358q0 70 18.5 134.5t55 114.5 90 80 122.5 30h95q-12 31-13 59 0 33 13.5 62.5t35 52 51 36 62.5 13.5 62.5-13.5 51-36 35-52 13.5-62.5q0-23-10-53 49 10 85 51t36 123v250h114v-244q0-76-20.5-130t-55-89-82-51.5-100.5-16.5h-373q-43 0-75.5-22.5t-54-58-32-81.5-10.5-96q0-49 10.5-95t32-82 54-58.5 75.5-22.5h351q-33 16-67 43t-61.5 65-46 86-18.5 107h129q0-66 29-120t69.5-95 89-63.5 85.5-22.5h71v-100h-631q-70 0-123 29.5t-89.5 80-55 115-18.5 133.5zM500 776q0-23 16-40t39-19h10q25 2 41.5 19.5t16.5 39.5q0 27-18.5 45.5t-43.5 18.5-43-18.5-18-45.5z" horiz-adv-x="1044" unicode="&#xe55;"/><glyph d="M35 1047v100h28q102 0 166-48t105-126 67.5-177.5 55.5-201.5q53 63 115.5 100t164.5 37q74 0 139.5-29.5t114.5-80 77-118 28-143.5q0-82-30-150.5t-79-118.5-114.5-77.5-135.5-27.5q-55 0-108.5 18.5t-98.5 51-78.5 77.5-52.5 100h119q29-70 85-108.5t134-38.5q51 0 95.5 20.5t78 56.5 53 86 19.5 111q0 117-69.5 192t-176.5 79q-92-4-152.5-56.5t-80.5-144.5h-123q-43 166-76 283.5t-69.5 191.5-84 108-116.5 34z" horiz-adv-x="1124" unicode="&#xe56;"/><glyph d="M27 373q0 94 21.5 162.5t58 111.5 88 63.5 110.5 20.5q53 0 87-15.5t53.5-34.5 28.5-36.5 11-21.5q0 2 9.5 19t30 36.5 54 36 83.5 16.5q57 0 107-20.5t88-63.5 60.5-111.5 22.5-162.5q0-86-16.5-154.5t-34.5-118.5q23 2 51.5 12.5t53 32 41 54 16.5 80.5v618q0 45 12 94t42 90 79 68 125 27h28v-101q-53 0-86.5-15.5t-52-40-26-55-7.5-61.5v-616q0-76-23.5-130.5t-60.5-89-83-51-91-16.5h-182q14 25 31.5 60.5t33 81.5 25.5 103.5 10 127.5q0 117-43 188.5t-120 71.5q-31 0-59-17.5t-50.5-43-39.5-56.5-28-57q-14 27-31.5 57.5t-40 56-49 43-59.5 17.5q-31 0-60.5-12.5t-52-43-37-81-14.5-123.5q0-57 12.5-109.5t38-92.5 63.5-63.5 91-23.5q27 0 53 10l17 8v-106q-12-4-26.5-7t-43.5-3q-66 0-123 27.5t-101 77.5-69.5 122-25.5 160z" horiz-adv-x="1406" unicode="&#xe57;"/><glyph d="M23 373q0 68 21.5 130t64.5 109 107.5 76 150.5 29h286q33 0 64 8t55.5 29.5 38.5 55.5 14 87v250h115v-244q0-76-20.5-130t-55.5-89-82-51.5-100-16.5h-315q-53 0-96.5-21.5t-73-56-45-79.5-15.5-92q0-57 11.5-108.5t33-90.5 54-61.5 73.5-22.5q55 0 91 41t53 86q12-20 34.5-43t52-41 66.5-30.5 80-12.5q25 0 53.5 6t53 23.5 41 46 16.5 73.5q0 59-22.5 102.5t-69.5 59.5l24 94q72-20 127.5-82.5t55.5-173.5q0-68-21.5-114.5t-58.5-76.5-88.5-43-110.5-13q-96 0-148.5 23.5t-84.5 47.5q-20-25-56.5-48t-109.5-23q-45 0-92.5 24.5t-85 72.5-62 120.5-24.5 169.5z" horiz-adv-x="1062" unicode="&#xe58;"/><glyph d="M25 373q0 94 26.5 162.5t68.5 111.5 92 63.5 97 20.5q72 0 115-17.5t76-49.5q23 74 69.5 113.5t116.5 39.5q51 0 84-20.5t58.5-44 48-44 55.5-20.5q66 0 90.5 61.5t24.5 168.5v229h114v-229q0-63-9-123t-31.5-106-61.5-73.5-98-27.5q-66 0-104 17.5t-64.5 39-51 39.5-61.5 18q-61-8-79.5-46t-18.5-81q0-12 1-24t6-33.5 15-57.5 26.5-95.5 41-148.5 59.5-216h-115l-143 512q-6 18-16.5 38.5t-28.5 39-47 31-72 12.5q-25 0-55.5-12.5t-57-43-45-81-18.5-123.5q0-55 13.5-107.5t39-92.5 64.5-64.5 88-24.5q37 0 53 10l19 8v-106q-12-4-27.5-7t-44.5-3q-61 0-117.5 27.5t-100.5 77.5-69.5 122-25.5 160z" horiz-adv-x="1214" unicode="&#xe59;"/><glyph d="M29 889h114q23-86 69-137.5t132-51.5 147.5 48.5 86.5 140.5h124v-580q0-74-7-131t-27.5-97-57.5-60.5-94-20.5h-14v100h14q16 0 29.5 5.5t23 27 14.5 64.5 5 118v430q-12-23-32.5-48t-50.5-46.5-70-36-91-14.5q-131 0-212 77t-103 212zM817 0v889h115v-889h-115z" horiz-adv-x="1044" unicode="&#xe5a;"/><glyph d="M88 356q0 82 29.5 150.5t80 119 115 78 136.5 27.5q117 0 206.5-68.5t130.5-179.5h-118q-29 70-85.5 109t-133.5 39q-51 0-95.5-20.5t-78-56.5-53-86-19.5-112q0-57 18.5-106t52-86 79.5-57.5 104-20.5q70 6 123 36t92 64l106-92 80 92 94-92 84 92q20-33 60.5-65.5t83.5-32.5q41 0 56 22.5t15 47.5q0 45-10 68.5t-18 31.5h114q8-8 18.5-31.5t10.5-68.5q0-29-9-58.5t-30.5-55.5-58.5-42-90-16q-41 0-80 29.5t-62 56.5l-84-95-94 95-80-95-106 95q-39-31-92-55.5t-123-30.5q-80 0-147.5 29.5t-117 79.5-77 118-27.5 143z" horiz-adv-x="1396" unicode="&#xe5b;"/><glyph horiz-adv-x="923" unicode="&#x2000;"/><glyph horiz-adv-x="1847" unicode="&#x2001;"/><glyph horiz-adv-x="923" unicode="&#x2002;"/><glyph horiz-adv-x="1847" unicode="&#x2003;"/><glyph horiz-adv-x="615" unicode="&#x2004;"/><glyph horiz-adv-x="461" unicode="&#x2005;"/><glyph horiz-adv-x="307" unicode="&#x2006;"/><glyph horiz-adv-x="307" unicode="&#x2007;"/><glyph horiz-adv-x="230" unicode="&#x2008;"/><glyph horiz-adv-x="369" unicode="&#x2009;"/><glyph horiz-adv-x="102" unicode="&#x200a;"/><glyph d="M111 395v101h401v-101h-401z" horiz-adv-x="624" unicode="&#x2010;"/><glyph d="M111 395v101h401v-101h-401z" horiz-adv-x="624" unicode="&#x2011;"/><glyph d="M111 395v101h401v-101h-401z" horiz-adv-x="624" unicode="&#x2012;"/><glyph d="M111 395v101h616v-101h-616z" horiz-adv-x="839" unicode="&#x2013;"/><glyph d="M111 395v101h1003v-101h-1003z" horiz-adv-x="1226" unicode="&#x2014;"/><glyph d="M59 737v115q0 27 13.5 55.5t34 57 46 57.5 50.5 53h86q-20-29-41-60.5t-37-62-26.5-57.5-10.5-43v-115h-115z" horiz-adv-x="313" unicode="&#x2018;"/><glyph d="M31 737l55 90q23 37 38 75t19 59v114h115v-114q0-27-14.5-58t-35-60.5-46-57-45.5-48.5h-86z" horiz-adv-x="317" unicode="&#x2019;"/><glyph d="M84 737v115q0 27 13.5 55.5t33 57 45 57.5 49.5 53h86q-20-29-39.5-60.5t-36-62-26.5-57.5-10-43v-115h-115zM299 737v115q0 27 13.5 55.5t34 57 46 57.5 49.5 53h86q-20-29-40.5-60.5t-37-62-26.5-57.5-10-43v-115h-115z" horiz-adv-x="587" unicode="&#x201c;"/><glyph d="M66 737l55 90q23 37 38 75t19 59v114h115v-114q0-27-13.5-58t-35-60.5-47-57-47.5-48.5h-84zM281 737l57 90q23 37 37 75t20 59v114h115v-114q0-27-14.5-58t-36-60.5-46-57-46.5-48.5h-86z" horiz-adv-x="589" unicode="&#x201d;"/><glyph d="M76 444q0 78 54 132.5t132 54.5q80 0 133.5-54.5t53.5-132.5-53.5-132-133.5-54q-78 0-132 54.5t-54 131.5z" horiz-adv-x="524" unicode="&#x2022;"/><glyph d="M111 0v115h114v-115h-114zM537 0v115h116v-115h-116zM965 0v115h114v-115h-114z" horiz-adv-x="1191" unicode="&#x2026;"/><glyph horiz-adv-x="369" unicode="&#x202f;"/><glyph horiz-adv-x="461" unicode="&#x205f;"/><glyph d="M55 338v100h70q-2 12-2 23.5v23.5q0 16 1 34t3 34h-72v100h90q47 184 184.5 274.5t332.5 90.5q70 0 124-4t101-27v-123q-61 29-123 41.5t-125 12.5q-135 0-232.5-71t-142.5-194h451v-100h-473q-2-16-3-33.5t-1-34.5v-23t2-24h432v-100h-416q37-123 128-187.5t232-64.5q78 0 143.5 16.5t127.5 47.5v-111q-61-37-131-45t-152-8q-186 0-308 92t-159 260h-82z" horiz-adv-x="983" unicode="&#x20ac;"/><glyph d="M0 0v717h717v-717h-717z" horiz-adv-x="716" unicode="&#x25fc;"/><glyph d="M88 674q41 117 138.5 173t219.5 56q86 0 155-22.5t118-60.5 74.5-87 25.5-102v-338q0-35 10.5-72t34-66.5 58-49 84.5-19.5h51q49 0 85 19.5t60.5 49 35.5 66.5 11 72v596h115v-588q0-59-17.5-115.5t-52-100.5-87-71.5-122.5-27.5h-108q-70 0-121 27.5t-85 71.5-50 100.5-16 115.5v330q0 43-25 75.5t-62.5 54-83 32-88.5 10.5q-111 0-174-36t-84-79l129-115q-16-20-29.5-61t-13.5-111v-251q0-16 4.5-33t24.5-17h57v-100h-86q-66 0-90 40t-24 103v258q0 70 13 111t30 61l-58 52q-23 20-41 32.5t-16 16.5z" horiz-adv-x="1470"/><glyph d="M35 719q16 25 45 56.5t71 60 97 48 127 19.5q74 0 141-26 18 6 44 15t48.5 24.5 39 37 16.5 50.5h114q0-41-16.5-72t-41-52.5-54-36-56.5-20.5q86-66 133.5-166t47.5-213q0-100-35-182t-93.5-140.5-133-90-154.5-31.5h-96l-93 344q-6 14-22 14h-58v101h87q82 0 102-64l78-295q63 0 119.5 28t96.5 76 63.5 110.5 23.5 129.5q0 80-25.5 145.5t-67.5 113-96.5 74-111.5 26.5q-55 0-103.5-21.5t-87.5-53.5-67.5-71-42.5-73z" horiz-adv-x="872"/><glyph d="M-690 1618q0 53 23.5 85t57.5 48 68.5 20.5 59.5 4.5q121 0 187.5 23.5t113.5 47.5v-98q-37-20-96.5-38.5t-182.5-18.5q-41 0-65.5-6.5t-36.5-16.5-16.5-23.5-4.5-27.5q0-18 17.5-37.5t40.5-19.5q29 0 48 17t27 36h39q6-20 17.5-36.5t27.5-16.5q12 0 23.5 3t11.5 15v14h107v-18q0-53-29-75.5t-72-22.5q-33 0-53 8t-31.5 19.5-15.5 20.5-6 11q-8-20-25.5-39.5t-68.5-19.5q-20 0-49 6t-54.5 22.5-44 43-18.5 69.5z"/><glyph d="M-217 1405v229h115v-229h-115z"/><glyph d="M-557 1534v100h98q47 0 67.5-20.5t31-44 17.5-44 28-20.5h215l-27-100h-217q-43 0-65.5 1t-34 8-13.5 23.5-2 45.5v8q-2 16-7 29.5t-21 13.5h-70z"/><glyph d="M-668 1526q0 39 27 73.5t88 34.5q39 0 62.5-10t31.5-18q8 8 32 18t69 10q47 0 67.5-20.5t30.5-44 17-44 28-20.5h115l-27-100h-117q-68 0-89 22.5t-25 49-4 49-25 22.5q-16 0-29.5-17.5t-13.5-39.5h-57q0 20-10.5 38.5t-26.5 18.5q-18 0-23.5-15t-5.5-36q0-39 12.5-61.5t24.5-30.5h-115q-16 16-26.5 40.5t-10.5 80.5z"/><glyph d="M-332 1470v101h115v63h115v-63h114v-101h-114v-65h-115v65h-115z"/><glyph d="M-217 1405v43q0 74 43 130t129 56h129l-25-100h-75q-43 0-64.5-27.5t-21.5-64.5v-37h-115z"/><glyph d="M-322 1565q0 33 13.5 62.5t35 52 51 36 62.5 13.5 61.5-13.5 51-36 36-52.5 13.5-62q0-66-48-113t-114-47q-33 0-62.5 13.5t-51 35-35 50-13.5 61.5zM-225 1565q0-27 18.5-45.5t46.5-18.5q29 0 47.5 18.5t18.5 45.5q0 29-18.5 48t-47.5 19-47-19-18-48z"/><glyph d="M-240 1485q0 68 49.5 108.5t120.5 40.5q0 66 48.5 97.5t152.5 31.5v-71q-29 0-54.5-2t-44-15.5-29.5-43-11-83.5q-41 0-79-15t-38-63q0-31 23-65h-115q-23 41-23 80z"/></font>
</defs>
</svg>
